# xmcd
#
# Track frame offsets:
#	150
#	13596
#	28315
#	42327
#	57918
#	71274
#	84620
#	97414
#	110433
#	125126
#	138532
#	151822
#	167201
#	180517
#	194652
#	208619
#	223062
#	248710
#	262587
#	276724
#	290455
#	303555
#
# Disc length: 4219 seconds
#
# Revision: 1
# Processed by: cddbd v1.5.2PL0 Copyright (c) Steve Scherf et al.
# Submitted via: audiograbber 1.83.01
#
DISCID=55107916
DTITLE=Voodoo Blues - Hoodoo and Magical Practices
DYEAR=2005
DGENRE=Blues
TTITLE0=John Lee SB Williamson - Hoodoo Hoodoo
TTITLE1=Charley Lincoln - Mojo Blues
TTITLE2=Bobby Leecan - Black Cat Bone Blues
TTITLE3=Barbecue Bob - New Mojo Blues
TTITLE4=Lightnin' Hopkins - Black Cat Bone
TTITLE5=Ma Rainay - Louisiana Hoo Doo Blues
TTITLE6=Blind Lemon Jefferson - Low Down Mojo Blue
TTITLE7=Casey Bill Weldon - I've Been Tricked
TTITLE8=Lil Johnson - Goofer Dust Swing
TTITLE9=Jimmie Gordon - The Mojo Blues
TTITLE10=Louis Jordan - Somebody DoneHoodooed The Hoodoo Man
TTITLE11=JD Jelly Jaw Short - Snake Doctor Blues
TTITLE12=Johnnie Temple - Hoodoo Woman
TTITLE13=Memphis Jug Band - Aunt Caroline Dyer Blues
TTITLE14=Waymon Sloopy Henry - Jomo Man Blues
TTITLE15=Doctor Clayton - Root Doctor Blues
TTITLE16=JT Funny Paper Smith - Seven Sisters Blues
TTITLE17=Memphis Minnie - Hoodoo Lady
TTITLE18=Curley Weaver - Two Faced Woman
TTITLE19=Arthur Big Boy Crudup - Hoodoo Lady Blues
TTITLE20=The Sky Fox - Hoodoo Say
TTITLE21=James Wee Willie Wayne - A Two-Faced Man
EXTD=Saga Blues 30 - 2005
EXTT0=
EXTT1=
EXTT2=
EXTT3=
EXTT4=
EXTT5=
EXTT6=
EXTT7=
EXTT8=
EXTT9=
EXTT10=
EXTT11=
EXTT12=
EXTT13=
EXTT14=
EXTT15=
EXTT16=
EXTT17=
EXTT18=
EXTT19=
EXTT20=
EXTT21=
PLAYORDER=
